<svg xmlns="http://www.w3.org/2000/svg" viewBox="0 0 100 100" fill="none">
  <g fill="#202124">
    <rect x="46" y="3" width="8" height="15" rx="2"/>
    <rect x="46" y="3" width="8" height="15" rx="2" transform="rotate(30 50 50)"/>
    <rect x="46" y="3" width="8" height="15" rx="2" transform="rotate(60 50 50)"/>
    <rect x="46" y="3" width="8" height="15" rx="2" transform="rotate(90 50 50)"/>
    <rect x="46" y="3" width="8" height="15" rx="2" transform="rotate(120 50 50)"/>
    <rect x="46" y="3" width="8" height="15" rx="2" transform="rotate(150 50 50)"/>
    <rect x="46" y="3" width="8" height="15" rx="2" transform="rotate(180 50 50)"/>
    <rect x="46" y="3" width="8" height="15" rx="2" transform="rotate(210 50 50)"/>
    <rect x="46" y="3" width="8" height="15" rx="2" transform="rotate(240 50 50)"/>
    <rect x="46" y="3" width="8" height="15" rx="2" transform="rotate(270 50 50)"/>
    <rect x="46" y="3" width="8" height="15" rx="2" transform="rotate(300 50 50)"/>
    <rect x="46" y="3" width="8" height="15" rx="2" transform="rotate(330 50 50)"/>
  </g>
  <circle cx="50" cy="50" r="35" fill="#fff" stroke="#202124" stroke-width="8"/>
  <rect x="37" y="28" width="28" height="53" rx="7" fill="#202124"/>
  <rect x="41" y="20" width="20" height="10" rx="3" fill="#202124"/>
  <path d="M34 18c-5 8-8 12-8 17a9 9 0 0 0 18 0c0-5-3-9-10-17Z" fill="#fff" stroke="#202124" stroke-width="2.5" stroke-linejoin="round"/>
  <text x="51" y="62" text-anchor="middle" fill="#fff" font-family="Arial,sans-serif" font-size="10" font-weight="800">OIL</text>
</svg>
